<?xml version="1.0" standalone="no"?>
<svg version="1.0" xmlns="http://www.w3.org/2000/svg"
 width="200.000000pt" height="200.000000pt" viewBox="0 0 200.000000 200.000000"
 preserveAspectRatio="xMidYMid meet">

<g transform="translate(0.000000,200.000000) scale(0.100000,-0.100000)"
fill="#000000" stroke="none">
<path d="M259 1855 c-52 -17 -107 -66 -135 -121 -18 -37 -19 -69 -19 -734 0
-665 1 -697 19 -734 11 -21 35 -54 54 -72 66 -64 64 -64 792 -64 736 0 726 -1
792 67 66 70 72 90 76 273 4 163 4 165 30 193 l27 28 0 274 0 274 -27 28 -26
28 -4 200 c-4 223 -8 242 -75 309 -67 67 -60 66 -797 65 -539 0 -669 -3 -707
-14z m1391 -125 c0 -20 -7 -20 -680 -20 -673 0 -680 0 -680 20 0 20 7 20 680
20 673 0 680 0 680 -20z m61 -157 l39 -42 0 -122 c0 -113 -2 -125 -22 -147
-23 -23 -23 -27 -23 -297 0 -270 0 -274 23 -297 21 -23 22 -32 22 -189 0 -184
-8 -211 -72 -246 -31 -17 -77 -18 -708 -18 -631 0 -677 1 -708 18 -18 10 -42
32 -52 50 -19 31 -20 55 -20 650 0 612 0 617 21 638 49 49 37 49 772 46 l688
-2 40 -42z"/>
<path d="M391 1213 c-41 -36 -49 -96 -15 -101 16 -2 27 7 42 32 27 46 43 46
68 1 13 -24 44 -32 54 -15 10 17 -6 64 -29 84 -10 9 -34 19 -53 23 -29 4 -41
0 -67 -24z"/>
<path d="M1130 1225 c-51 -27 -66 -97 -22 -103 16 -3 25 3 32 22 14 38 54 35
70 -4 13 -32 40 -39 59 -16 25 29 -46 116 -93 116 -11 -1 -32 -7 -46 -15z"/>
<path d="M560 923 c-32 -16 -35 -23 -38 -66 -8 -117 108 -225 260 -243 43 -5
73 -2 125 14 110 34 183 110 199 209 5 33 2 44 -19 69 l-25 29 -234 3 c-207 2
-237 1 -268 -15z m408 -125 c7 -7 12 -21 12 -33 0 -56 -77 -105 -165 -105 -69
0 -113 18 -148 59 -29 35 -34 60 -15 79 17 17 299 17 316 0z"/>
</g>
</svg>
